<?xml version="1.0" encoding="UTF-8" standalone="no"?><svg xmlns="http://www.w3.org/2000/svg" xmlns:xlink="http://www.w3.org/1999/xlink" contentScriptType="application/ecmascript" contentStyleType="text/css" height="432px" preserveAspectRatio="none" style="width:742px;height:432px;" version="1.1" viewBox="0 0 742 432" width="742px" zoomAndPan="magnify"><defs><filter height="300%" id="fcoxke1pv5f81" width="300%" x="-1" y="-1"><feGaussianBlur result="blurOut" stdDeviation="2.0"/><feColorMatrix in="blurOut" result="blurOut2" type="matrix" values="0 0 0 0 0 0 0 0 0 0 0 0 0 0 0 0 0 0 .4 0"/><feOffset dx="4.0" dy="4.0" in="blurOut2" result="blurOut3"/><feBlend in="SourceGraphic" in2="blurOut3" mode="normal"/></filter></defs><g><!--MD5=[fb7458d8603d8a741cd80b25f785e279]
cluster ois_api_client--><polygon fill="#F7F7F7" filter="url(#fcoxke1pv5f81)" points="22,24,134,24,141,46.2969,720,46.2969,720,420,22,420,22,24" style="stroke: #000000; stroke-width: 1.5;"/><line style="stroke: #000000; stroke-width: 1.5;" x1="22" x2="141" y1="46.2969" y2="46.2969"/><text fill="#000000" font-family="sans-serif" font-size="14" font-weight="bold" lengthAdjust="spacingAndGlyphs" textLength="106" x="26" y="38.9951">ois_api_client</text><!--MD5=[3333e2d11a09e7970ec2d35f44f07275]
class ois_api_client.BasicHeader--><rect fill="#FEFECE" filter="url(#fcoxke1pv5f81)" height="99.2188" id="ois_api_client.BasicHeader" style="stroke: #A80036; stroke-width: 1.5;" width="181" x="522.5" y="84.5"/><ellipse cx="571.75" cy="100.5" fill="#ADD1B2" rx="11" ry="11" style="stroke: #A80036; stroke-width: 1.0;"/><path d="M574.2188,106.375 Q573.6406,106.6875 573,106.8438 Q572.3594,107 571.6563,107 Q569.1563,107 567.8281,105.3281 Q566.5156,103.6563 566.5156,100.5 Q566.5156,97.3438 567.8281,95.6719 Q569.1563,94 571.6563,94 Q572.3594,94 573,94.1563 Q573.6563,94.3125 574.2188,94.625 L574.2188,97.4219 Q573.5938,96.8594 573,96.5938 Q572.4063,96.3125 571.7813,96.3125 Q570.4375,96.3125 569.75,97.375 Q569.0625,98.4375 569.0625,100.5 Q569.0625,102.5781 569.75,103.6406 Q570.4375,104.6875 571.7813,104.6875 Q572.4063,104.6875 573,104.4219 Q573.5938,104.1563 574.2188,103.5781 L574.2188,106.375 Z "/><text fill="#000000" font-family="sans-serif" font-size="12" lengthAdjust="spacingAndGlyphs" textLength="74" x="592.25" y="104.6543">BasicHeader</text><line style="stroke: #A80036; stroke-width: 1.5;" x1="523.5" x2="702.5" y1="116.5" y2="116.5"/><ellipse cx="533.5" cy="127.5" fill="none" rx="3" ry="3" style="stroke: #038048; stroke-width: 1.0;"/><text fill="#000000" font-family="sans-serif" font-size="11" lengthAdjust="spacingAndGlyphs" textLength="82" x="542.5" y="130.7104">request_id: str</text><ellipse cx="533.5" cy="140.3047" fill="none" rx="3" ry="3" style="stroke: #038048; stroke-width: 1.0;"/><text fill="#000000" font-family="sans-serif" font-size="11" lengthAdjust="spacingAndGlyphs" textLength="118" x="542.5" y="143.5151">timestamp: datetime</text><rect fill="none" height="6" style="stroke: #C82930; stroke-width: 1.0;" width="6" x="530.5" y="150.1094"/><text fill="#000000" font-family="sans-serif" font-size="11" lengthAdjust="spacingAndGlyphs" text-decoration="underline" textLength="155" x="542.5" y="156.3198">request_version: str = '3.0'</text><rect fill="none" height="6" style="stroke: #C82930; stroke-width: 1.0;" width="6" x="530.5" y="162.9141"/><text fill="#000000" font-family="sans-serif" font-size="11" lengthAdjust="spacingAndGlyphs" text-decoration="underline" textLength="152" x="542.5" y="169.1245">header_version: str = '1.0'</text><line style="stroke: #A80036; stroke-width: 1.5;" x1="523.5" x2="702.5" y1="175.7188" y2="175.7188"/><!--MD5=[641a2ad06c5fd3132a3ca5629f4301c7]
class ois_api_client.Software--><rect fill="#FEFECE" filter="url(#fcoxke1pv5f81)" height="150.4375" id="ois_api_client.Software" style="stroke: #A80036; stroke-width: 1.5;" width="262" x="225" y="59"/><ellipse cx="325.25" cy="75" fill="#ADD1B2" rx="11" ry="11" style="stroke: #A80036; stroke-width: 1.0;"/><path d="M327.7188,80.875 Q327.1406,81.1875 326.5,81.3438 Q325.8594,81.5 325.1563,81.5 Q322.6563,81.5 321.3281,79.8281 Q320.0156,78.1563 320.0156,75 Q320.0156,71.8438 321.3281,70.1719 Q322.6563,68.5 325.1563,68.5 Q325.8594,68.5 326.5,68.6563 Q327.1563,68.8125 327.7188,69.125 L327.7188,71.9219 Q327.0938,71.3594 326.5,71.0938 Q325.9063,70.8125 325.2813,70.8125 Q323.9375,70.8125 323.25,71.875 Q322.5625,72.9375 322.5625,75 Q322.5625,77.0781 323.25,78.1406 Q323.9375,79.1875 325.2813,79.1875 Q325.9063,79.1875 326.5,78.9219 Q327.0938,78.6563 327.7188,78.0781 L327.7188,80.875 Z "/><text fill="#000000" font-family="sans-serif" font-size="12" lengthAdjust="spacingAndGlyphs" textLength="53" x="345.75" y="79.1543">Software</text><line style="stroke: #A80036; stroke-width: 1.5;" x1="226" x2="486" y1="91" y2="91"/><ellipse cx="236" cy="102" fill="none" rx="3" ry="3" style="stroke: #038048; stroke-width: 1.0;"/><text fill="#000000" font-family="sans-serif" font-size="11" lengthAdjust="spacingAndGlyphs" textLength="88" x="245" y="105.2104">software_id: str</text><ellipse cx="236" cy="114.8047" fill="none" rx="3" ry="3" style="stroke: #038048; stroke-width: 1.0;"/><text fill="#000000" font-family="sans-serif" font-size="11" lengthAdjust="spacingAndGlyphs" textLength="110" x="245" y="118.0151">software_name: str</text><ellipse cx="236" cy="127.6094" fill="none" rx="3" ry="3" style="stroke: #038048; stroke-width: 1.0;"/><text fill="#000000" font-family="sans-serif" font-size="11" lengthAdjust="spacingAndGlyphs" textLength="223" x="245" y="130.8198">software_operation: SoftwareOperation</text><ellipse cx="236" cy="140.4141" fill="none" rx="3" ry="3" style="stroke: #038048; stroke-width: 1.0;"/><text fill="#000000" font-family="sans-serif" font-size="11" lengthAdjust="spacingAndGlyphs" textLength="154" x="245" y="143.6245">software_main_version: str</text><ellipse cx="236" cy="153.2188" fill="none" rx="3" ry="3" style="stroke: #038048; stroke-width: 1.0;"/><text fill="#000000" font-family="sans-serif" font-size="11" lengthAdjust="spacingAndGlyphs" textLength="137" x="245" y="156.4292">software_dev_name: str</text><ellipse cx="236" cy="166.0234" fill="none" rx="3" ry="3" style="stroke: #038048; stroke-width: 1.0;"/><text fill="#000000" font-family="sans-serif" font-size="11" lengthAdjust="spacingAndGlyphs" textLength="146" x="245" y="169.2339">software_dev_contact: str</text><ellipse cx="236" cy="178.8281" fill="none" rx="3" ry="3" style="stroke: #038048; stroke-width: 1.0;"/><text fill="#000000" font-family="sans-serif" font-size="11" lengthAdjust="spacingAndGlyphs" textLength="236" x="245" y="182.0386">software_dev_country_code: Optional[str]</text><ellipse cx="236" cy="191.6328" fill="none" rx="3" ry="3" style="stroke: #038048; stroke-width: 1.0;"/><text fill="#000000" font-family="sans-serif" font-size="11" lengthAdjust="spacingAndGlyphs" textLength="215" x="245" y="194.8433">softwareDevTaxNumber: Optional[str]</text><line style="stroke: #A80036; stroke-width: 1.5;" x1="226" x2="486" y1="201.4375" y2="201.4375"/><!--MD5=[00e5b502cf133a04d3f4d48092d67665]
class ois_api_client.SoftwareOperation--><rect fill="#FEFECE" filter="url(#fcoxke1pv5f81)" height="73.6094" id="ois_api_client.SoftwareOperation" style="stroke: #A80036; stroke-width: 1.5;" width="144" x="284" y="330"/><ellipse cx="299" cy="346" fill="#EB937F" rx="11" ry="11" style="stroke: #A80036; stroke-width: 1.0;"/><path d="M303.1094,352.5 L295.3906,352.5 L295.3906,339.5 L303.1094,339.5 L303.1094,341.7813 L297.8438,341.7813 L297.8438,344.5 L302.6094,344.5 L302.6094,346.7813 L297.8438,346.7813 L297.8438,350.2344 L303.1094,350.2344 L303.1094,352.5 Z "/><text fill="#000000" font-family="sans-serif" font-size="12" lengthAdjust="spacingAndGlyphs" textLength="112" x="313" y="350.1543">SoftwareOperation</text><line style="stroke: #A80036; stroke-width: 1.5;" x1="285" x2="427" y1="362" y2="362"/><text fill="#000000" font-family="sans-serif" font-size="11" lengthAdjust="spacingAndGlyphs" textLength="106" x="290" y="376.2104">LOCAL_SOFTWARE</text><text fill="#000000" font-family="sans-serif" font-size="11" lengthAdjust="spacingAndGlyphs" textLength="95" x="290" y="389.0151">ONLINE_SERVICE</text><line style="stroke: #A80036; stroke-width: 1.5;" x1="285" x2="427" y1="395.6094" y2="395.6094"/><!--MD5=[f974eb9fb9cbf3e7459e14cb08217d90]
class ois_api_client.UserHeader--><rect fill="#FEFECE" filter="url(#fcoxke1pv5f81)" height="99.2188" id="ois_api_client.UserHeader" style="stroke: #A80036; stroke-width: 1.5;" width="151" x="38.5" y="84.5"/><ellipse cx="75.55" cy="100.5" fill="#ADD1B2" rx="11" ry="11" style="stroke: #A80036; stroke-width: 1.0;"/><path d="M78.0188,106.375 Q77.4406,106.6875 76.8,106.8438 Q76.1594,107 75.4563,107 Q72.9563,107 71.6281,105.3281 Q70.3156,103.6563 70.3156,100.5 Q70.3156,97.3438 71.6281,95.6719 Q72.9563,94 75.4563,94 Q76.1594,94 76.8,94.1563 Q77.4563,94.3125 78.0188,94.625 L78.0188,97.4219 Q77.3938,96.8594 76.8,96.5938 Q76.2063,96.3125 75.5813,96.3125 Q74.2375,96.3125 73.55,97.375 Q72.8625,98.4375 72.8625,100.5 Q72.8625,102.5781 73.55,103.6406 Q74.2375,104.6875 75.5813,104.6875 Q76.2063,104.6875 76.8,104.4219 Q77.3938,104.1563 78.0188,103.5781 L78.0188,106.375 Z "/><text fill="#000000" font-family="sans-serif" font-size="12" lengthAdjust="spacingAndGlyphs" textLength="70" x="94.45" y="104.6543">UserHeader</text><line style="stroke: #A80036; stroke-width: 1.5;" x1="39.5" x2="188.5" y1="116.5" y2="116.5"/><ellipse cx="49.5" cy="127.5" fill="none" rx="3" ry="3" style="stroke: #038048; stroke-width: 1.0;"/><text fill="#000000" font-family="sans-serif" font-size="11" lengthAdjust="spacingAndGlyphs" textLength="50" x="58.5" y="130.7104">login: str</text><ellipse cx="49.5" cy="140.3047" fill="none" rx="3" ry="3" style="stroke: #038048; stroke-width: 1.0;"/><text fill="#000000" font-family="sans-serif" font-size="11" lengthAdjust="spacingAndGlyphs" textLength="91" x="58.5" y="143.5151">tax_number: str</text><rect fill="none" height="6" style="stroke: #C82930; stroke-width: 1.0;" width="6" x="46.5" y="150.1094"/><text fill="#000000" font-family="sans-serif" font-size="11" lengthAdjust="spacingAndGlyphs" textLength="110" x="58.5" y="156.3198">password_hash: str</text><rect fill="none" height="6" style="stroke: #C82930; stroke-width: 1.0;" width="6" x="46.5" y="162.9141"/><text fill="#000000" font-family="sans-serif" font-size="11" lengthAdjust="spacingAndGlyphs" textLength="125" x="58.5" y="169.1245">request_signature: str</text><line style="stroke: #A80036; stroke-width: 1.5;" x1="39.5" x2="188.5" y1="175.7188" y2="175.7188"/><!--MD5=[36b7728228a85d974cc47301ad9035df]
link ois_api_client.Software to ois_api_client.SoftwareOperation--><path d="M356,209.04 C356,249.42 356,297.6 356,329.83 " fill="none" id="ois_api_client.Software-ois_api_client.SoftwareOperation" style="stroke: #A80036; stroke-width: 1.0;"/><!--MD5=[ad04f797b08911a956a53a7188f21ac3]
@startuml
namespace ois_api_client #F7F7F7 {
    class BasicHeader {
    + request_id: str
    + timestamp: datetime
    - {static} request_version: str = '3.0'
    - {static} header_version: str = '1.0'
    }

    class Software {
    + software_id: str
    + software_name: str
    + software_operation: SoftwareOperation
    + software_main_version: str
    + software_dev_name: str
    + software_dev_contact: str
    + software_dev_country_code: Optional[str]
    + softwareDevTaxNumber: Optional[str]
    }

    enum SoftwareOperation {
        LOCAL_SOFTWARE
        ONLINE_SERVICE
    }

    class UserHeader {
    + login: str
    + tax_number: str
    - password_hash: str
    - request_signature: str
    }

    Software - - - SoftwareOperation
}
@enduml

PlantUML version 1.2020.09(Sun May 10 12:51:06 CEST 2020)
(GPL source distribution)
Java Runtime: OpenJDK Runtime Environment
JVM: OpenJDK 64-Bit Server VM
Java Version: 11.0.8+10-b944.34
Operating System: Linux
Default Encoding: UTF-8
Language: en
Country: US
--></g></svg>