<?xml version="1.0" encoding="UTF-8" standalone="no"?><svg xmlns="http://www.w3.org/2000/svg" xmlns:xlink="http://www.w3.org/1999/xlink" contentScriptType="application/ecmascript" contentStyleType="text/css" height="827.4px" preserveAspectRatio="none" style="width:1402px;height:827px;" version="1.1" viewBox="0 0 1402 827" width="1402.8px" zoomAndPan="magnify"><defs><filter height="300%" id="f6lrfph673tsy" width="300%" x="-1" y="-1"><feGaussianBlur result="blurOut" stdDeviation="2.8"/><feColorMatrix in="blurOut" result="blurOut2" type="matrix" values="0 0 0 0 0 0 0 0 0 0 0 0 0 0 0 0 0 0 .4 0"/><feOffset dx="5.6" dy="5.6" in="blurOut2" result="blurOut3"/><feBlend in="SourceGraphic" in2="blurOut3" mode="normal"/></filter></defs><g><!--MD5=[fb7458d8603d8a741cd80b25f785e279]
cluster ois_api_client--><polygon fill="#F7F7F7" filter="url(#f6lrfph673tsy)" points="30.8,33.6,187.6,33.6,197.4,64.8156,1372,64.8156,1372,810.6,30.8,810.6,30.8,33.6" style="stroke: #000000; stroke-width: 2.0999999999999996;"/><line style="stroke: #000000; stroke-width: 2.0999999999999996;" x1="30.8" x2="197.4" y1="64.8156" y2="64.8156"/><text fill="#000000" font-family="sans-serif" font-size="19.6" font-weight="bold" lengthAdjust="spacingAndGlyphs" textLength="148.4" x="36.4" y="54.5932">ois_api_client</text><!--MD5=[3333e2d11a09e7970ec2d35f44f07275]
class ois_api_client.BasicHeader--><rect fill="#FEFECE" filter="url(#f6lrfph673tsy)" height="138.9063" id="ois_api_client.BasicHeader" style="stroke: #A80036; stroke-width: 2.0999999999999996;" width="253.4" x="53.9" y="340.9"/><ellipse cx="122.85" cy="363.3" fill="#ADD1B2" rx="15.4" ry="15.4" style="stroke: #A80036; stroke-width: 1.4;"/><path d="M126.3062,371.525 Q125.4969,371.9625 124.6,372.1813 Q123.7031,372.4 122.7187,372.4 Q119.2187,372.4 117.3594,370.0594 Q115.5219,367.7188 115.5219,363.3 Q115.5219,358.8812 117.3594,356.5406 Q119.2187,354.2 122.7187,354.2 Q123.7031,354.2 124.6,354.4188 Q125.5188,354.6375 126.3062,355.075 L126.3062,358.9906 Q125.4312,358.2031 124.6,357.8312 Q123.7688,357.4375 122.8938,357.4375 Q121.0125,357.4375 120.05,358.925 Q119.0875,360.4125 119.0875,363.3 Q119.0875,366.2094 120.05,367.6969 Q121.0125,369.1625 122.8938,369.1625 Q123.7688,369.1625 124.6,368.7906 Q125.4312,368.4188 126.3062,367.6094 L126.3062,371.525 Z "/><text fill="#000000" font-family="sans-serif" font-size="16.8" lengthAdjust="spacingAndGlyphs" textLength="103.6" x="151.55" y="369.116">BasicHeader</text><line style="stroke: #A80036; stroke-width: 2.0999999999999996;" x1="55.3" x2="305.9" y1="385.7" y2="385.7"/><ellipse cx="69.3" cy="401.1" fill="none" rx="4.2" ry="4.2" style="stroke: #038048; stroke-width: 1.4;"/><text fill="#000000" font-family="sans-serif" font-size="15.4" lengthAdjust="spacingAndGlyphs" textLength="114.8" x="81.9" y="405.5946">request_id: str</text><ellipse cx="69.3" cy="419.0266" fill="none" rx="4.2" ry="4.2" style="stroke: #038048; stroke-width: 1.4;"/><text fill="#000000" font-family="sans-serif" font-size="15.4" lengthAdjust="spacingAndGlyphs" textLength="165.2" x="81.9" y="423.5212">timestamp: datetime</text><rect fill="none" height="8.4" style="stroke: #C82930; stroke-width: 1.4;" width="8.4" x="65.1" y="432.7531"/><text fill="#000000" font-family="sans-serif" font-size="15.4" lengthAdjust="spacingAndGlyphs" text-decoration="underline" textLength="217" x="81.9" y="441.4478">request_version: str = '3.0'</text><rect fill="none" height="8.4" style="stroke: #C82930; stroke-width: 1.4;" width="8.4" x="65.1" y="450.6797"/><text fill="#000000" font-family="sans-serif" font-size="15.4" lengthAdjust="spacingAndGlyphs" text-decoration="underline" textLength="212.8" x="81.9" y="459.3743">header_version: str = '1.0'</text><line style="stroke: #A80036; stroke-width: 2.0999999999999996;" x1="55.3" x2="305.9" y1="468.6063" y2="468.6063"/><!--MD5=[12ee496826fba0b19115a221f1eeafd9]
class ois_api_client.BasicResult--><rect fill="#FEFECE" filter="url(#f6lrfph673tsy)" height="138.9063" id="ois_api_client.BasicResult" style="stroke: #A80036; stroke-width: 2.0999999999999996;" width="268.8" x="357" y="340.9"/><ellipse cx="437.85" cy="363.3" fill="#ADD1B2" rx="15.4" ry="15.4" style="stroke: #A80036; stroke-width: 1.4;"/><path d="M441.3063,371.525 Q440.4969,371.9625 439.6,372.1813 Q438.7031,372.4 437.7188,372.4 Q434.2188,372.4 432.3594,370.0594 Q430.5219,367.7188 430.5219,363.3 Q430.5219,358.8812 432.3594,356.5406 Q434.2188,354.2 437.7188,354.2 Q438.7031,354.2 439.6,354.4188 Q440.5187,354.6375 441.3063,355.075 L441.3063,358.9906 Q440.4313,358.2031 439.6,357.8312 Q438.7687,357.4375 437.8937,357.4375 Q436.0125,357.4375 435.05,358.925 Q434.0875,360.4125 434.0875,363.3 Q434.0875,366.2094 435.05,367.6969 Q436.0125,369.1625 437.8937,369.1625 Q438.7687,369.1625 439.6,368.7906 Q440.4313,368.4188 441.3063,367.6094 L441.3063,371.525 Z "/><text fill="#000000" font-family="sans-serif" font-size="16.8" lengthAdjust="spacingAndGlyphs" textLength="95.2" x="466.55" y="369.116">BasicResult</text><line style="stroke: #A80036; stroke-width: 2.0999999999999996;" x1="358.4" x2="624.4" y1="385.7" y2="385.7"/><ellipse cx="372.4" cy="401.1" fill="none" rx="4.2" ry="4.2" style="stroke: #038048; stroke-width: 1.4;"/><text fill="#000000" font-family="sans-serif" font-size="15.4" lengthAdjust="spacingAndGlyphs" textLength="112" x="385" y="405.5946">func_code: str</text><ellipse cx="372.4" cy="419.0266" fill="none" rx="4.2" ry="4.2" style="stroke: #038048; stroke-width: 1.4;"/><text fill="#000000" font-family="sans-serif" font-size="15.4" lengthAdjust="spacingAndGlyphs" textLength="196" x="385" y="423.5212">error_code: Optional[str]</text><ellipse cx="372.4" cy="436.9531" fill="none" rx="4.2" ry="4.2" style="stroke: #038048; stroke-width: 1.4;"/><text fill="#000000" font-family="sans-serif" font-size="15.4" lengthAdjust="spacingAndGlyphs" textLength="180.6" x="385" y="441.4478">message: Optional[str]</text><ellipse cx="372.4" cy="454.8797" fill="none" rx="4.2" ry="4.2" style="stroke: #038048; stroke-width: 1.4;"/><text fill="#000000" font-family="sans-serif" font-size="15.4" lengthAdjust="spacingAndGlyphs" textLength="232.4" x="385" y="459.3743">notifications: List[Notification]</text><line style="stroke: #A80036; stroke-width: 2.0999999999999996;" x1="358.4" x2="624.4" y1="468.6063" y2="468.6063"/><!--MD5=[641a2ad06c5fd3132a3ca5629f4301c7]
class ois_api_client.Software--><rect fill="#FEFECE" filter="url(#f6lrfph673tsy)" height="210.6125" id="ois_api_client.Software" style="stroke: #A80036; stroke-width: 2.0999999999999996;" width="366.8" x="674.8" y="305.2"/><ellipse cx="815.15" cy="327.6" fill="#ADD1B2" rx="15.4" ry="15.4" style="stroke: #A80036; stroke-width: 1.4;"/><path d="M818.6062,335.825 Q817.7969,336.2625 816.9,336.4813 Q816.0031,336.7 815.0188,336.7 Q811.5188,336.7 809.6594,334.3594 Q807.8219,332.0187 807.8219,327.6 Q807.8219,323.1813 809.6594,320.8406 Q811.5188,318.5 815.0188,318.5 Q816.0031,318.5 816.9,318.7188 Q817.8187,318.9375 818.6062,319.375 L818.6062,323.2906 Q817.7312,322.5031 816.9,322.1312 Q816.0687,321.7375 815.1937,321.7375 Q813.3125,321.7375 812.35,323.225 Q811.3875,324.7125 811.3875,327.6 Q811.3875,330.5094 812.35,331.9969 Q813.3125,333.4625 815.1937,333.4625 Q816.0687,333.4625 816.9,333.0906 Q817.7312,332.7188 818.6062,331.9094 L818.6062,335.825 Z "/><text fill="#000000" font-family="sans-serif" font-size="16.8" lengthAdjust="spacingAndGlyphs" textLength="74.2" x="843.85" y="333.416">Software</text><line style="stroke: #A80036; stroke-width: 2.0999999999999996;" x1="676.2" x2="1040.2" y1="350" y2="350"/><ellipse cx="690.2" cy="365.4" fill="none" rx="4.2" ry="4.2" style="stroke: #038048; stroke-width: 1.4;"/><text fill="#000000" font-family="sans-serif" font-size="15.4" lengthAdjust="spacingAndGlyphs" textLength="123.2" x="702.8" y="369.8946">software_id: str</text><ellipse cx="690.2" cy="383.3266" fill="none" rx="4.2" ry="4.2" style="stroke: #038048; stroke-width: 1.4;"/><text fill="#000000" font-family="sans-serif" font-size="15.4" lengthAdjust="spacingAndGlyphs" textLength="154" x="702.8" y="387.8212">software_name: str</text><ellipse cx="690.2" cy="401.2531" fill="none" rx="4.2" ry="4.2" style="stroke: #038048; stroke-width: 1.4;"/><text fill="#000000" font-family="sans-serif" font-size="15.4" lengthAdjust="spacingAndGlyphs" textLength="312.2" x="702.8" y="405.7478">software_operation: SoftwareOperation</text><ellipse cx="690.2" cy="419.1797" fill="none" rx="4.2" ry="4.2" style="stroke: #038048; stroke-width: 1.4;"/><text fill="#000000" font-family="sans-serif" font-size="15.4" lengthAdjust="spacingAndGlyphs" textLength="215.6" x="702.8" y="423.6743">software_main_version: str</text><ellipse cx="690.2" cy="437.1063" fill="none" rx="4.2" ry="4.2" style="stroke: #038048; stroke-width: 1.4;"/><text fill="#000000" font-family="sans-serif" font-size="15.4" lengthAdjust="spacingAndGlyphs" textLength="191.8" x="702.8" y="441.6009">software_dev_name: str</text><ellipse cx="690.2" cy="455.0328" fill="none" rx="4.2" ry="4.2" style="stroke: #038048; stroke-width: 1.4;"/><text fill="#000000" font-family="sans-serif" font-size="15.4" lengthAdjust="spacingAndGlyphs" textLength="204.4" x="702.8" y="459.5274">software_dev_contact: str</text><ellipse cx="690.2" cy="472.9594" fill="none" rx="4.2" ry="4.2" style="stroke: #038048; stroke-width: 1.4;"/><text fill="#000000" font-family="sans-serif" font-size="15.4" lengthAdjust="spacingAndGlyphs" textLength="330.4" x="702.8" y="477.454">software_dev_country_code: Optional[str]</text><ellipse cx="690.2" cy="490.8859" fill="none" rx="4.2" ry="4.2" style="stroke: #038048; stroke-width: 1.4;"/><text fill="#000000" font-family="sans-serif" font-size="15.4" lengthAdjust="spacingAndGlyphs" textLength="301" x="702.8" y="495.3806">softwareDevTaxNumber: Optional[str]</text><line style="stroke: #A80036; stroke-width: 2.0999999999999996;" x1="676.2" x2="1040.2" y1="504.6125" y2="504.6125"/><!--MD5=[00e5b502cf133a04d3f4d48092d67665]
class ois_api_client.SoftwareOperation--><rect fill="#FEFECE" filter="url(#f6lrfph673tsy)" height="103.0531" id="ois_api_client.SoftwareOperation" style="stroke: #A80036; stroke-width: 2.0999999999999996;" width="201.6" x="757.4" y="684.6"/><ellipse cx="778.4" cy="707" fill="#EB937F" rx="15.4" ry="15.4" style="stroke: #A80036; stroke-width: 1.4;"/><path d="M784.1531,716.1 L773.3469,716.1 L773.3469,697.9 L784.1531,697.9 L784.1531,701.0938 L776.7813,701.0938 L776.7813,704.9 L783.4531,704.9 L783.4531,708.0938 L776.7813,708.0938 L776.7813,712.9281 L784.1531,712.9281 L784.1531,716.1 Z "/><text fill="#000000" font-family="sans-serif" font-size="16.8" lengthAdjust="spacingAndGlyphs" textLength="156.8" x="798" y="712.816">SoftwareOperation</text><line style="stroke: #A80036; stroke-width: 2.0999999999999996;" x1="758.8" x2="957.6" y1="729.4" y2="729.4"/><text fill="#000000" font-family="sans-serif" font-size="15.4" lengthAdjust="spacingAndGlyphs" textLength="148.4" x="765.8" y="749.2946">LOCAL_SOFTWARE</text><text fill="#000000" font-family="sans-serif" font-size="15.4" lengthAdjust="spacingAndGlyphs" textLength="133" x="765.8" y="767.2212">ONLINE_SERVICE</text><line style="stroke: #A80036; stroke-width: 2.0999999999999996;" x1="758.8" x2="957.6" y1="776.4531" y2="776.4531"/><!--MD5=[8e38a386ea34233a10d352058430a503]
class ois_api_client.TechnicalValidationResult--><rect fill="#FEFECE" filter="url(#f6lrfph673tsy)" height="120.9797" id="ois_api_client.TechnicalValidationResult" style="stroke: #A80036; stroke-width: 2.0999999999999996;" width="259" x="1091.3" y="350"/><ellipse cx="1112.3" cy="372.4" fill="#ADD1B2" rx="15.4" ry="15.4" style="stroke: #A80036; stroke-width: 1.4;"/><path d="M1115.7563,380.625 Q1114.9469,381.0625 1114.05,381.2813 Q1113.1531,381.5 1112.1687,381.5 Q1108.6687,381.5 1106.8094,379.1594 Q1104.9719,376.8187 1104.9719,372.4 Q1104.9719,367.9813 1106.8094,365.6406 Q1108.6687,363.3 1112.1687,363.3 Q1113.1531,363.3 1114.05,363.5187 Q1114.9688,363.7375 1115.7563,364.175 L1115.7563,368.0906 Q1114.8813,367.3031 1114.05,366.9313 Q1113.2188,366.5375 1112.3438,366.5375 Q1110.4625,366.5375 1109.5,368.025 Q1108.5375,369.5125 1108.5375,372.4 Q1108.5375,375.3094 1109.5,376.7969 Q1110.4625,378.2625 1112.3438,378.2625 Q1113.2188,378.2625 1114.05,377.8906 Q1114.8813,377.5187 1115.7563,376.7094 L1115.7563,380.625 Z "/><text fill="#000000" font-family="sans-serif" font-size="16.8" lengthAdjust="spacingAndGlyphs" textLength="214.2" x="1131.9" y="378.216">TechnicalValidationResult</text><line style="stroke: #A80036; stroke-width: 2.0999999999999996;" x1="1092.7" x2="1348.9" y1="394.8" y2="394.8"/><ellipse cx="1106.7" cy="410.2" fill="none" rx="4.2" ry="4.2" style="stroke: #038048; stroke-width: 1.4;"/><text fill="#000000" font-family="sans-serif" font-size="15.4" lengthAdjust="spacingAndGlyphs" textLength="208.6" x="1119.3" y="414.6946">validation_result_code: str</text><ellipse cx="1106.7" cy="428.1266" fill="none" rx="4.2" ry="4.2" style="stroke: #038048; stroke-width: 1.4;"/><text fill="#000000" font-family="sans-serif" font-size="15.4" lengthAdjust="spacingAndGlyphs" textLength="204.4" x="1119.3" y="432.6212">validation_error_code: str</text><ellipse cx="1106.7" cy="446.0531" fill="none" rx="4.2" ry="4.2" style="stroke: #038048; stroke-width: 1.4;"/><text fill="#000000" font-family="sans-serif" font-size="15.4" lengthAdjust="spacingAndGlyphs" textLength="103.6" x="1119.3" y="450.5478">message: str</text><line style="stroke: #A80036; stroke-width: 2.0999999999999996;" x1="1092.7" x2="1348.9" y1="459.7797" y2="459.7797"/><!--MD5=[bc898fa30cddf1b6f6633921c651cedf]
class ois_api_client.GeneralErrorResponse--><rect fill="#FEFECE" filter="url(#f6lrfph673tsy)" height="138.9063" id="ois_api_client.GeneralErrorResponse" style="stroke: #A80036; stroke-width: 2.0999999999999996;" width="530.6" x="409.5" y="82.6"/><ellipse cx="575.75" cy="105" fill="#ADD1B2" rx="15.4" ry="15.4" style="stroke: #A80036; stroke-width: 1.4;"/><path d="M579.2063,113.225 Q578.3969,113.6625 577.5,113.8813 Q576.6031,114.1 575.6188,114.1 Q572.1188,114.1 570.2594,111.7594 Q568.4219,109.4187 568.4219,105 Q568.4219,100.5813 570.2594,98.2406 Q572.1188,95.9 575.6188,95.9 Q576.6031,95.9 577.5,96.1187 Q578.4187,96.3375 579.2063,96.775 L579.2063,100.6906 Q578.3313,99.9031 577.5,99.5313 Q576.6687,99.1375 575.7937,99.1375 Q573.9125,99.1375 572.95,100.625 Q571.9875,102.1125 571.9875,105 Q571.9875,107.9094 572.95,109.3969 Q573.9125,110.8625 575.7937,110.8625 Q576.6687,110.8625 577.5,110.4906 Q578.3313,110.1187 579.2063,109.3094 L579.2063,113.225 Z "/><text fill="#000000" font-family="sans-serif" font-size="16.8" lengthAdjust="spacingAndGlyphs" textLength="186.2" x="604.45" y="110.816">GeneralErrorResponse</text><line style="stroke: #A80036; stroke-width: 2.0999999999999996;" x1="410.9" x2="938.7" y1="127.4" y2="127.4"/><ellipse cx="424.9" cy="142.8" fill="none" rx="4.2" ry="4.2" style="stroke: #038048; stroke-width: 1.4;"/><text fill="#000000" font-family="sans-serif" font-size="15.4" lengthAdjust="spacingAndGlyphs" textLength="166.6" x="437.5" y="147.2946">header: BasicHeader</text><ellipse cx="424.9" cy="160.7266" fill="none" rx="4.2" ry="4.2" style="stroke: #038048; stroke-width: 1.4;"/><text fill="#000000" font-family="sans-serif" font-size="15.4" lengthAdjust="spacingAndGlyphs" textLength="147" x="437.5" y="165.2212">result: BasicResult</text><ellipse cx="424.9" cy="178.6531" fill="none" rx="4.2" ry="4.2" style="stroke: #038048; stroke-width: 1.4;"/><text fill="#000000" font-family="sans-serif" font-size="15.4" lengthAdjust="spacingAndGlyphs" textLength="149.8" x="437.5" y="183.1478">software: Software</text><ellipse cx="424.9" cy="196.5797" fill="none" rx="4.2" ry="4.2" style="stroke: #038048; stroke-width: 1.4;"/><text fill="#000000" font-family="sans-serif" font-size="15.4" lengthAdjust="spacingAndGlyphs" textLength="494.2" x="437.5" y="201.0743">technical_validation_messages: List[TechnicalValidationResult]</text><line style="stroke: #A80036; stroke-width: 2.0999999999999996;" x1="410.9" x2="938.7" y1="210.3062" y2="210.3062"/><!--MD5=[2b61662a8b5340cd6927f58f5af2fe03]
link ois_api_client.GeneralErrorResponse to ois_api_client.BasicHeader--><path d="M505.974,221.284 C449.946,245.686 387.94,274.764 333.2,305.2 C319.27,312.942 304.99,321.594 291.018,330.498 " fill="none" id="ois_api_client.GeneralErrorResponse-&gt;ois_api_client.BasicHeader" style="stroke: #A80036; stroke-width: 1.4;"/><polygon fill="#A80036" points="275.422,340.634,285.5168,340.757,289.5129,331.486,279.4181,331.363,275.422,340.634" style="stroke: #A80036; stroke-width: 1.4;"/><text fill="#000000" font-family="sans-serif" font-size="18.2" lengthAdjust="spacingAndGlyphs" textLength="11.2" x="470.2453" y="249.4029">1</text><text fill="#000000" font-family="sans-serif" font-size="18.2" lengthAdjust="spacingAndGlyphs" textLength="11.2" x="276.7688" y="325.2599">1</text><!--MD5=[6eb4c0ea97af42ba64d7065fdd1bccc6]
link ois_api_client.GeneralErrorResponse to ois_api_client.BasicResult--><path d="M625.646,221.774 C602.742,253.694 575.274,291.956 551.18,325.528 " fill="none" id="ois_api_client.GeneralErrorResponse-&gt;ois_api_client.BasicResult" style="stroke: #A80036; stroke-width: 1.4;"/><polygon fill="#A80036" points="540.372,340.592,549.8213,337.0381,550.1752,326.9488,540.7258,330.5027,540.372,340.592" style="stroke: #A80036; stroke-width: 1.4;"/><text fill="#000000" font-family="sans-serif" font-size="18.2" lengthAdjust="spacingAndGlyphs" textLength="11.2" x="607.0884" y="249.4598">1</text><text fill="#000000" font-family="sans-serif" font-size="18.2" lengthAdjust="spacingAndGlyphs" textLength="11.2" x="535.2712" y="325.212">1</text><!--MD5=[08bf0a10337d84b1a8d4d2e0020ffde9]
link ois_api_client.GeneralErrorResponse to ois_api_client.Software--><path d="M723.954,221.774 C739.004,242.746 756.028,266.462 772.772,289.786 " fill="none" id="ois_api_client.GeneralErrorResponse-&gt;ois_api_client.Software" style="stroke: #A80036; stroke-width: 1.4;"/><polygon fill="#A80036" points="783.72,305.032,783.3752,294.9423,773.929,291.38,774.2738,301.4697,783.72,305.032" style="stroke: #A80036; stroke-width: 1.4;"/><text fill="#000000" font-family="sans-serif" font-size="18.2" lengthAdjust="spacingAndGlyphs" textLength="11.2" x="718.6066" y="249.4598">1</text><text fill="#000000" font-family="sans-serif" font-size="18.2" lengthAdjust="spacingAndGlyphs" textLength="11.2" x="764.8874" y="289.8807">1</text><!--MD5=[6141cd413f5f9c12833d96ecbd55e1b5]
link ois_api_client.GeneralErrorResponse to ois_api_client.TechnicalValidationResult--><path d="M875.49,221.242 C938.07,245.014 1006.46,273.714 1066.8,305.2 C1086.218,315.336 1106.182,327.39 1125.026,339.626 " fill="none" id="ois_api_client.GeneralErrorResponse-&gt;ois_api_client.TechnicalValidationResult" style="stroke: #A80036; stroke-width: 1.4;"/><polygon fill="#A80036" points="1140.566,349.916,1136.649,340.6113,1126.5536,340.6482,1130.4705,349.9529,1140.566,349.916" style="stroke: #A80036; stroke-width: 1.4;"/><text fill="#000000" font-family="sans-serif" font-size="18.2" lengthAdjust="spacingAndGlyphs" textLength="11.2" x="891.7245" y="249.355">1</text><text fill="#000000" font-family="sans-serif" font-size="18.2" lengthAdjust="spacingAndGlyphs" textLength="32.2" x="1093.0128" y="334.4971">0..*</text><!--MD5=[36b7728228a85d974cc47301ad9035df]
link ois_api_client.Software to ois_api_client.SoftwareOperation--><path d="M858.2,515.256 C858.2,571.788 858.2,639.24 858.2,684.362 " fill="none" id="ois_api_client.Software-ois_api_client.SoftwareOperation" style="stroke: #A80036; stroke-width: 1.4;"/><!--MD5=[30e7e5150b6a9a89ffe8f4c575803b21]
@startuml
namespace ois_api_client #F7F7F7 {
    class BasicHeader {
    + request_id: str
    + timestamp: datetime
    - {static} request_version: str = '3.0'
    - {static} header_version: str = '1.0'
    }

    class BasicResult {
    + func_code: str
    + error_code: Optional[str]
    + message: Optional[str]
    + notifications: List[Notification]
    }

    class Software {
    + software_id: str
    + software_name: str
    + software_operation: SoftwareOperation
    + software_main_version: str
    + software_dev_name: str
    + software_dev_contact: str
    + software_dev_country_code: Optional[str]
    + softwareDevTaxNumber: Optional[str]
    }

    enum SoftwareOperation {
        LOCAL_SOFTWARE
        ONLINE_SERVICE
    }

    class TechnicalValidationResult {
    + validation_result_code: str
    + validation_error_code: str
    + message: str
    }

    class GeneralErrorResponse {
    + header: BasicHeader
    + result: BasicResult
    + software: Software
    + technical_validation_messages: List[TechnicalValidationResult]
    }

    GeneralErrorResponse "1" - -* "1" BasicHeader
    GeneralErrorResponse "1" - -* "1" BasicResult
    GeneralErrorResponse "1" - -* "1" Software
    GeneralErrorResponse "1" - -* "0..*" TechnicalValidationResult
    Software - - - SoftwareOperation
}
@enduml

PlantUML version 1.2020.09(Sun May 10 12:51:06 CEST 2020)
(GPL source distribution)
Java Runtime: OpenJDK Runtime Environment
JVM: OpenJDK 64-Bit Server VM
Java Version: 11.0.8+10-b944.34
Operating System: Linux
Default Encoding: UTF-8
Language: en
Country: US
--></g></svg>