<?xml version="1.0" encoding="UTF-8" standalone="no"?><svg xmlns="http://www.w3.org/2000/svg" xmlns:xlink="http://www.w3.org/1999/xlink" contentScriptType="application/ecmascript" contentStyleType="text/css" height="1069px" preserveAspectRatio="none" style="width:1647px;height:1069px;" version="1.1" viewBox="0 0 1647 1069" width="1647px" zoomAndPan="magnify"><defs><filter height="300%" id="f1ccukidslpzvc" width="300%" x="-1" y="-1"><feGaussianBlur result="blurOut" stdDeviation="2.0"/><feColorMatrix in="blurOut" result="blurOut2" type="matrix" values="0 0 0 0 0 0 0 0 0 0 0 0 0 0 0 0 0 0 .4 0"/><feOffset dx="4.0" dy="4.0" in="blurOut2" result="blurOut3"/><feBlend in="SourceGraphic" in2="blurOut3" mode="normal"/></filter></defs><g><!--MD5=[894442645724153f40a9f7a43026dbfc]
class Invoice--><rect codeLine="1" fill="#FEFECE" filter="url(#f1ccukidslpzvc)" height="112.0234" id="Invoice" style="stroke: #A80036; stroke-width: 1.5;" width="407" x="739.5" y="7"/><ellipse cx="917.25" cy="23" fill="#ADD1B2" rx="11" ry="11" style="stroke: #A80036; stroke-width: 1.0;"/><path d="M919.7188,28.875 Q919.1406,29.1875 918.5,29.3438 Q917.8594,29.5 917.1563,29.5 Q914.6563,29.5 913.3281,27.8281 Q912.0156,26.1563 912.0156,23 Q912.0156,19.8438 913.3281,18.1719 Q914.6563,16.5 917.1563,16.5 Q917.8594,16.5 918.5,16.6563 Q919.1563,16.8125 919.7188,17.125 L919.7188,19.9219 Q919.0938,19.3594 918.5,19.0938 Q917.9063,18.8125 917.2813,18.8125 Q915.9375,18.8125 915.25,19.875 Q914.5625,20.9375 914.5625,23 Q914.5625,25.0781 915.25,26.1406 Q915.9375,27.1875 917.2813,27.1875 Q917.9063,27.1875 918.5,26.9219 Q919.0938,26.6563 919.7188,26.0781 L919.7188,28.875 Z "/><text fill="#000000" font-family="sans-serif" font-size="12" lengthAdjust="spacingAndGlyphs" textLength="43" x="937.75" y="27.1543">Invoice</text><line style="stroke: #A80036; stroke-width: 1.5;" x1="740.5" x2="1145.5" y1="39" y2="39"/><ellipse cx="750.5" cy="50" fill="none" rx="3" ry="3" style="stroke: #038048; stroke-width: 1.0;"/><text fill="#000000" font-family="sans-serif" font-size="11" lengthAdjust="spacingAndGlyphs" textLength="151" x="759.5" y="53.2104">invoice_head: InvoiceHead</text><ellipse cx="750.5" cy="62.8047" fill="none" rx="3" ry="3" style="stroke: #038048; stroke-width: 1.0;"/><text fill="#000000" font-family="sans-serif" font-size="11" lengthAdjust="spacingAndGlyphs" textLength="163" x="759.5" y="66.0151">invoice_summary: Summary</text><ellipse cx="750.5" cy="75.6094" fill="none" rx="3" ry="3" style="stroke: #038048; stroke-width: 1.0;"/><text fill="#000000" font-family="sans-serif" font-size="11" lengthAdjust="spacingAndGlyphs" textLength="308" x="759.5" y="78.8198">invoice_reference: Optional[InvoiceReference] = None</text><ellipse cx="750.5" cy="88.4141" fill="none" rx="3" ry="3" style="stroke: #038048; stroke-width: 1.0;"/><text fill="#000000" font-family="sans-serif" font-size="11" lengthAdjust="spacingAndGlyphs" textLength="210" x="759.5" y="91.6245">invoice_lines: Optional[Lines] = None</text><ellipse cx="750.5" cy="101.2188" fill="none" rx="3" ry="3" style="stroke: #038048; stroke-width: 1.0;"/><text fill="#000000" font-family="sans-serif" font-size="11" lengthAdjust="spacingAndGlyphs" textLength="381" x="759.5" y="104.4292">product_fee_summary: Optional[List[ProductFeeSummary]] = None</text><line style="stroke: #A80036; stroke-width: 1.5;" x1="740.5" x2="1145.5" y1="111.0234" y2="111.0234"/><!--MD5=[3e0252c6e7722d320915fa8c0ee830de]
class InvoiceHead--><rect codeLine="9" fill="#FEFECE" filter="url(#f1ccukidslpzvc)" height="99.2188" id="InvoiceHead" style="stroke: #A80036; stroke-width: 1.5;" width="397" x="580.5" y="179"/><ellipse cx="737.75" cy="195" fill="#ADD1B2" rx="11" ry="11" style="stroke: #A80036; stroke-width: 1.0;"/><path d="M740.2188,200.875 Q739.6406,201.1875 739,201.3438 Q738.3594,201.5 737.6563,201.5 Q735.1563,201.5 733.8281,199.8281 Q732.5156,198.1563 732.5156,195 Q732.5156,191.8438 733.8281,190.1719 Q735.1563,188.5 737.6563,188.5 Q738.3594,188.5 739,188.6563 Q739.6563,188.8125 740.2188,189.125 L740.2188,191.9219 Q739.5938,191.3594 739,191.0938 Q738.4063,190.8125 737.7813,190.8125 Q736.4375,190.8125 735.75,191.875 Q735.0625,192.9375 735.0625,195 Q735.0625,197.0781 735.75,198.1406 Q736.4375,199.1875 737.7813,199.1875 Q738.4063,199.1875 739,198.9219 Q739.5938,198.6563 740.2188,198.0781 L740.2188,200.875 Z "/><text fill="#000000" font-family="sans-serif" font-size="12" lengthAdjust="spacingAndGlyphs" textLength="74" x="758.25" y="199.1543">InvoiceHead</text><line style="stroke: #A80036; stroke-width: 1.5;" x1="581.5" x2="976.5" y1="211" y2="211"/><ellipse cx="591.5" cy="222" fill="none" rx="3" ry="3" style="stroke: #038048; stroke-width: 1.0;"/><text fill="#000000" font-family="sans-serif" font-size="11" lengthAdjust="spacingAndGlyphs" textLength="147" x="600.5" y="225.2104">supplier_info: SupplierInfo</text><ellipse cx="591.5" cy="234.8047" fill="none" rx="3" ry="3" style="stroke: #038048; stroke-width: 1.0;"/><text fill="#000000" font-family="sans-serif" font-size="11" lengthAdjust="spacingAndGlyphs" textLength="157" x="600.5" y="238.0151">invoice_detail: InvoiceDetail</text><ellipse cx="591.5" cy="247.6094" fill="none" rx="3" ry="3" style="stroke: #038048; stroke-width: 1.0;"/><text fill="#000000" font-family="sans-serif" font-size="11" lengthAdjust="spacingAndGlyphs" textLength="265" x="600.5" y="250.8198">customer_info: Optional[CustomerInfo] = None</text><ellipse cx="591.5" cy="260.4141" fill="none" rx="3" ry="3" style="stroke: #038048; stroke-width: 1.0;"/><text fill="#000000" font-family="sans-serif" font-size="11" lengthAdjust="spacingAndGlyphs" textLength="371" x="600.5" y="263.6245">fiscal_representative_info: Optional[FiscalRepresentative] = None</text><line style="stroke: #A80036; stroke-width: 1.5;" x1="581.5" x2="976.5" y1="270.2188" y2="270.2188"/><!--MD5=[1af3485dd5ccf6e100b82f6333d5fee8]
class InvoiceReference--><rect codeLine="16" fill="#FEFECE" filter="url(#f1ccukidslpzvc)" height="86.4141" id="InvoiceReference" style="stroke: #A80036; stroke-width: 1.5;" width="190" x="1013" y="185.5"/><ellipse cx="1052.75" cy="201.5" fill="#ADD1B2" rx="11" ry="11" style="stroke: #A80036; stroke-width: 1.0;"/><path d="M1055.2188,207.375 Q1054.6406,207.6875 1054,207.8438 Q1053.3594,208 1052.6563,208 Q1050.1563,208 1048.8281,206.3281 Q1047.5156,204.6563 1047.5156,201.5 Q1047.5156,198.3438 1048.8281,196.6719 Q1050.1563,195 1052.6563,195 Q1053.3594,195 1054,195.1563 Q1054.6563,195.3125 1055.2188,195.625 L1055.2188,198.4219 Q1054.5938,197.8594 1054,197.5938 Q1053.4063,197.3125 1052.7813,197.3125 Q1051.4375,197.3125 1050.75,198.375 Q1050.0625,199.4375 1050.0625,201.5 Q1050.0625,203.5781 1050.75,204.6406 Q1051.4375,205.6875 1052.7813,205.6875 Q1053.4063,205.6875 1054,205.4219 Q1054.5938,205.1563 1055.2188,204.5781 L1055.2188,207.375 Z "/><text fill="#000000" font-family="sans-serif" font-size="12" lengthAdjust="spacingAndGlyphs" textLength="103" x="1072.25" y="205.6543">InvoiceReference</text><line style="stroke: #A80036; stroke-width: 1.5;" x1="1014" x2="1202" y1="217.5" y2="217.5"/><ellipse cx="1024" cy="228.5" fill="none" rx="3" ry="3" style="stroke: #038048; stroke-width: 1.0;"/><text fill="#000000" font-family="sans-serif" font-size="11" lengthAdjust="spacingAndGlyphs" textLength="161" x="1033" y="231.7104">original_invoice_number: str</text><ellipse cx="1024" cy="241.3047" fill="none" rx="3" ry="3" style="stroke: #038048; stroke-width: 1.0;"/><text fill="#000000" font-family="sans-serif" font-size="11" lengthAdjust="spacingAndGlyphs" textLength="128" x="1033" y="244.5151">modification_index: int</text><ellipse cx="1024" cy="254.1094" fill="none" rx="3" ry="3" style="stroke: #038048; stroke-width: 1.0;"/><text fill="#000000" font-family="sans-serif" font-size="11" lengthAdjust="spacingAndGlyphs" textLength="164" x="1033" y="257.3198">modify_without_master: bool</text><line style="stroke: #A80036; stroke-width: 1.5;" x1="1014" x2="1202" y1="263.9141" y2="263.9141"/><!--MD5=[47668d63c0bce97458779924110a1d07]
class SupplierInfo--><rect codeLine="22" fill="#FEFECE" filter="url(#f1ccukidslpzvc)" height="150.4375" id="SupplierInfo" style="stroke: #A80036; stroke-width: 1.5;" width="362" x="7" y="396"/><ellipse cx="147.25" cy="412" fill="#ADD1B2" rx="11" ry="11" style="stroke: #A80036; stroke-width: 1.0;"/><path d="M149.7188,417.875 Q149.1406,418.1875 148.5,418.3438 Q147.8594,418.5 147.1563,418.5 Q144.6563,418.5 143.3281,416.8281 Q142.0156,415.1563 142.0156,412 Q142.0156,408.8438 143.3281,407.1719 Q144.6563,405.5 147.1563,405.5 Q147.8594,405.5 148.5,405.6563 Q149.1563,405.8125 149.7188,406.125 L149.7188,408.9219 Q149.0938,408.3594 148.5,408.0938 Q147.9063,407.8125 147.2813,407.8125 Q145.9375,407.8125 145.25,408.875 Q144.5625,409.9375 144.5625,412 Q144.5625,414.0781 145.25,415.1406 Q145.9375,416.1875 147.2813,416.1875 Q147.9063,416.1875 148.5,415.9219 Q149.0938,415.6563 149.7188,415.0781 L149.7188,417.875 Z "/><text fill="#000000" font-family="sans-serif" font-size="12" lengthAdjust="spacingAndGlyphs" textLength="73" x="167.75" y="416.1543">SupplierInfo</text><line style="stroke: #A80036; stroke-width: 1.5;" x1="8" x2="368" y1="428" y2="428"/><ellipse cx="18" cy="439" fill="none" rx="3" ry="3" style="stroke: #038048; stroke-width: 1.0;"/><text fill="#000000" font-family="sans-serif" font-size="11" lengthAdjust="spacingAndGlyphs" textLength="193" x="27" y="442.2104">supplier_tax_number: TaxNumber</text><ellipse cx="18" cy="451.8047" fill="none" rx="3" ry="3" style="stroke: #038048; stroke-width: 1.0;"/><text fill="#000000" font-family="sans-serif" font-size="11" lengthAdjust="spacingAndGlyphs" textLength="106" x="27" y="455.0151">supplier_name: str</text><ellipse cx="18" cy="464.6094" fill="none" rx="3" ry="3" style="stroke: #038048; stroke-width: 1.0;"/><text fill="#000000" font-family="sans-serif" font-size="11" lengthAdjust="spacingAndGlyphs" textLength="150" x="27" y="467.8198">supplier_address: Address</text><ellipse cx="18" cy="477.4141" fill="none" rx="3" ry="3" style="stroke: #038048; stroke-width: 1.0;"/><text fill="#000000" font-family="sans-serif" font-size="11" lengthAdjust="spacingAndGlyphs" textLength="336" x="27" y="480.6245">group_member_tax_number: Optional[TaxNumber] = None</text><ellipse cx="18" cy="490.2188" fill="none" rx="3" ry="3" style="stroke: #038048; stroke-width: 1.0;"/><text fill="#000000" font-family="sans-serif" font-size="11" lengthAdjust="spacingAndGlyphs" textLength="261" x="27" y="493.4292">community_vat_number: Optional[str] = None</text><ellipse cx="18" cy="503.0234" fill="none" rx="3" ry="3" style="stroke: #038048; stroke-width: 1.0;"/><text fill="#000000" font-family="sans-serif" font-size="11" lengthAdjust="spacingAndGlyphs" textLength="302" x="27" y="506.2339">supplier_bank_account_number: Optional[str] = None</text><ellipse cx="18" cy="515.8281" fill="none" rx="3" ry="3" style="stroke: #038048; stroke-width: 1.0;"/><text fill="#000000" font-family="sans-serif" font-size="11" lengthAdjust="spacingAndGlyphs" textLength="253" x="27" y="519.0386">individual_exemption: Optional[bool] = None</text><ellipse cx="18" cy="528.6328" fill="none" rx="3" ry="3" style="stroke: #038048; stroke-width: 1.0;"/><text fill="#000000" font-family="sans-serif" font-size="11" lengthAdjust="spacingAndGlyphs" textLength="236" x="27" y="531.8433">excise_licence_num: Optional[str] = None</text><line style="stroke: #A80036; stroke-width: 1.5;" x1="8" x2="368" y1="538.4375" y2="538.4375"/><!--MD5=[b2befe890cb98e387e27bd76daacee07]
class CustomerInfo--><rect codeLine="33" fill="#FEFECE" filter="url(#f1ccukidslpzvc)" height="112.0234" id="CustomerInfo" style="stroke: #A80036; stroke-width: 1.5;" width="343" x="404.5" y="415"/><ellipse cx="531.25" cy="431" fill="#ADD1B2" rx="11" ry="11" style="stroke: #A80036; stroke-width: 1.0;"/><path d="M533.7188,436.875 Q533.1406,437.1875 532.5,437.3438 Q531.8594,437.5 531.1563,437.5 Q528.6563,437.5 527.3281,435.8281 Q526.0156,434.1563 526.0156,431 Q526.0156,427.8438 527.3281,426.1719 Q528.6563,424.5 531.1563,424.5 Q531.8594,424.5 532.5,424.6563 Q533.1563,424.8125 533.7188,425.125 L533.7188,427.9219 Q533.0938,427.3594 532.5,427.0938 Q531.9063,426.8125 531.2813,426.8125 Q529.9375,426.8125 529.25,427.875 Q528.5625,428.9375 528.5625,431 Q528.5625,433.0781 529.25,434.1406 Q529.9375,435.1875 531.2813,435.1875 Q531.9063,435.1875 532.5,434.9219 Q533.0938,434.6563 533.7188,434.0781 L533.7188,436.875 Z "/><text fill="#000000" font-family="sans-serif" font-size="12" lengthAdjust="spacingAndGlyphs" textLength="81" x="551.75" y="435.1543">CustomerInfo</text><line style="stroke: #A80036; stroke-width: 1.5;" x1="405.5" x2="746.5" y1="447" y2="447"/><ellipse cx="415.5" cy="458" fill="none" rx="3" ry="3" style="stroke: #038048; stroke-width: 1.0;"/><text fill="#000000" font-family="sans-serif" font-size="11" lengthAdjust="spacingAndGlyphs" textLength="172" x="424.5" y="461.2104">private_person_indicator: bool</text><ellipse cx="415.5" cy="470.8047" fill="none" rx="3" ry="3" style="stroke: #038048; stroke-width: 1.0;"/><text fill="#000000" font-family="sans-serif" font-size="11" lengthAdjust="spacingAndGlyphs" textLength="317" x="424.5" y="474.0151">customer_vat_data: Optional[CustomerVatData] = None</text><ellipse cx="415.5" cy="483.6094" fill="none" rx="3" ry="3" style="stroke: #038048; stroke-width: 1.0;"/><text fill="#000000" font-family="sans-serif" font-size="11" lengthAdjust="spacingAndGlyphs" textLength="215" x="424.5" y="486.8198">customer_name: Optional[str] = None</text><ellipse cx="415.5" cy="496.4141" fill="none" rx="3" ry="3" style="stroke: #038048; stroke-width: 1.0;"/><text fill="#000000" font-family="sans-serif" font-size="11" lengthAdjust="spacingAndGlyphs" textLength="259" x="424.5" y="499.6245">customer_address: Optional[Address] = None</text><ellipse cx="415.5" cy="509.2188" fill="none" rx="3" ry="3" style="stroke: #038048; stroke-width: 1.0;"/><text fill="#000000" font-family="sans-serif" font-size="11" lengthAdjust="spacingAndGlyphs" textLength="310" x="424.5" y="512.4292">customer_bank_account_number: Optional[str] = None</text><line style="stroke: #A80036; stroke-width: 1.5;" x1="405.5" x2="746.5" y1="519.0234" y2="519.0234"/><!--MD5=[f485b0604a94dbaad3dea49d71fa62ae]
class FiscalRepresentative--><rect codeLine="41" fill="#FEFECE" filter="url(#f1ccukidslpzvc)" height="99.2188" id="FiscalRepresentative" style="stroke: #A80036; stroke-width: 1.5;" width="401" x="782.5" y="421.5"/><ellipse cx="917.25" cy="437.5" fill="#ADD1B2" rx="11" ry="11" style="stroke: #A80036; stroke-width: 1.0;"/><path d="M919.7188,443.375 Q919.1406,443.6875 918.5,443.8438 Q917.8594,444 917.1563,444 Q914.6563,444 913.3281,442.3281 Q912.0156,440.6563 912.0156,437.5 Q912.0156,434.3438 913.3281,432.6719 Q914.6563,431 917.1563,431 Q917.8594,431 918.5,431.1563 Q919.1563,431.3125 919.7188,431.625 L919.7188,434.4219 Q919.0938,433.8594 918.5,433.5938 Q917.9063,433.3125 917.2813,433.3125 Q915.9375,433.3125 915.25,434.375 Q914.5625,435.4375 914.5625,437.5 Q914.5625,439.5781 915.25,440.6406 Q915.9375,441.6875 917.2813,441.6875 Q917.9063,441.6875 918.5,441.4219 Q919.0938,441.1563 919.7188,440.5781 L919.7188,443.375 Z "/><text fill="#000000" font-family="sans-serif" font-size="12" lengthAdjust="spacingAndGlyphs" textLength="123" x="937.75" y="441.6543">FiscalRepresentative</text><line style="stroke: #A80036; stroke-width: 1.5;" x1="783.5" x2="1182.5" y1="453.5" y2="453.5"/><ellipse cx="793.5" cy="464.5" fill="none" rx="3" ry="3" style="stroke: #038048; stroke-width: 1.0;"/><text fill="#000000" font-family="sans-serif" font-size="11" lengthAdjust="spacingAndGlyphs" textLength="266" x="802.5" y="467.7104">fiscal_representative_tax_number: TaxNumber</text><ellipse cx="793.5" cy="477.3047" fill="none" rx="3" ry="3" style="stroke: #038048; stroke-width: 1.0;"/><text fill="#000000" font-family="sans-serif" font-size="11" lengthAdjust="spacingAndGlyphs" textLength="179" x="802.5" y="480.5151">fiscal_representative_name: str</text><ellipse cx="793.5" cy="490.1094" fill="none" rx="3" ry="3" style="stroke: #038048; stroke-width: 1.0;"/><text fill="#000000" font-family="sans-serif" font-size="11" lengthAdjust="spacingAndGlyphs" textLength="223" x="802.5" y="493.3198">fiscal_representative_address: Address</text><ellipse cx="793.5" cy="502.9141" fill="none" rx="3" ry="3" style="stroke: #038048; stroke-width: 1.0;"/><text fill="#000000" font-family="sans-serif" font-size="11" lengthAdjust="spacingAndGlyphs" textLength="375" x="802.5" y="506.1245">fiscal_representative_bank_account_number: Optional[str] = None</text><line style="stroke: #A80036; stroke-width: 1.5;" x1="783.5" x2="1182.5" y1="512.7188" y2="512.7188"/><!--MD5=[d55a2b345b800c76701b3abc3982bca8]
class InvoiceDetail--><rect codeLine="48" fill="#FEFECE" filter="url(#f1ccukidslpzvc)" height="265.6797" id="InvoiceDetail" style="stroke: #A80036; stroke-width: 1.5;" width="415" x="1218.5" y="338"/><ellipse cx="1383.25" cy="354" fill="#ADD1B2" rx="11" ry="11" style="stroke: #A80036; stroke-width: 1.0;"/><path d="M1385.7188,359.875 Q1385.1406,360.1875 1384.5,360.3438 Q1383.8594,360.5 1383.1563,360.5 Q1380.6563,360.5 1379.3281,358.8281 Q1378.0156,357.1563 1378.0156,354 Q1378.0156,350.8438 1379.3281,349.1719 Q1380.6563,347.5 1383.1563,347.5 Q1383.8594,347.5 1384.5,347.6563 Q1385.1563,347.8125 1385.7188,348.125 L1385.7188,350.9219 Q1385.0938,350.3594 1384.5,350.0938 Q1383.9063,349.8125 1383.2813,349.8125 Q1381.9375,349.8125 1381.25,350.875 Q1380.5625,351.9375 1380.5625,354 Q1380.5625,356.0781 1381.25,357.1406 Q1381.9375,358.1875 1383.2813,358.1875 Q1383.9063,358.1875 1384.5,357.9219 Q1385.0938,357.6563 1385.7188,357.0781 L1385.7188,359.875 Z "/><text fill="#000000" font-family="sans-serif" font-size="12" lengthAdjust="spacingAndGlyphs" textLength="77" x="1403.75" y="358.1543">InvoiceDetail</text><line style="stroke: #A80036; stroke-width: 1.5;" x1="1219.5" x2="1632.5" y1="370" y2="370"/><ellipse cx="1229.5" cy="381" fill="none" rx="3" ry="3" style="stroke: #038048; stroke-width: 1.0;"/><text fill="#000000" font-family="sans-serif" font-size="11" lengthAdjust="spacingAndGlyphs" textLength="196" x="1238.5" y="384.2104">invoice_category: InvoiceCategory</text><ellipse cx="1229.5" cy="393.8047" fill="none" rx="3" ry="3" style="stroke: #038048; stroke-width: 1.0;"/><text fill="#000000" font-family="sans-serif" font-size="11" lengthAdjust="spacingAndGlyphs" textLength="156" x="1238.5" y="397.0151">invoice_delivery_date: date</text><ellipse cx="1229.5" cy="406.6094" fill="none" rx="3" ry="3" style="stroke: #038048; stroke-width: 1.0;"/><text fill="#000000" font-family="sans-serif" font-size="11" lengthAdjust="spacingAndGlyphs" textLength="106" x="1238.5" y="409.8198">currency_code: str</text><ellipse cx="1229.5" cy="419.4141" fill="none" rx="3" ry="3" style="stroke: #038048; stroke-width: 1.0;"/><text fill="#000000" font-family="sans-serif" font-size="11" lengthAdjust="spacingAndGlyphs" textLength="117" x="1238.5" y="422.6245">exchange_rate: float</text><ellipse cx="1229.5" cy="432.2188" fill="none" rx="3" ry="3" style="stroke: #038048; stroke-width: 1.0;"/><text fill="#000000" font-family="sans-serif" font-size="11" lengthAdjust="spacingAndGlyphs" textLength="229" x="1238.5" y="435.4292">invoice_appearance: InvoiceAppearance</text><ellipse cx="1229.5" cy="445.0234" fill="none" rx="3" ry="3" style="stroke: #038048; stroke-width: 1.0;"/><text fill="#000000" font-family="sans-serif" font-size="11" lengthAdjust="spacingAndGlyphs" textLength="300" x="1238.5" y="448.2339">invoice_delivery_period_start: Optional[date] = None</text><ellipse cx="1229.5" cy="457.8281" fill="none" rx="3" ry="3" style="stroke: #038048; stroke-width: 1.0;"/><text fill="#000000" font-family="sans-serif" font-size="11" lengthAdjust="spacingAndGlyphs" textLength="295" x="1238.5" y="461.0386">invoice_delivery_period_end: Optional[date] = None</text><ellipse cx="1229.5" cy="470.6328" fill="none" rx="3" ry="3" style="stroke: #038048; stroke-width: 1.0;"/><text fill="#000000" font-family="sans-serif" font-size="11" lengthAdjust="spacingAndGlyphs" textLength="324" x="1238.5" y="473.8433">invoice_accounting_delivery_date: Optional[date] = None</text><ellipse cx="1229.5" cy="483.4375" fill="none" rx="3" ry="3" style="stroke: #038048; stroke-width: 1.0;"/><text fill="#000000" font-family="sans-serif" font-size="11" lengthAdjust="spacingAndGlyphs" textLength="254" x="1238.5" y="486.6479">periodical_settlement: Optional[bool] = None</text><ellipse cx="1229.5" cy="496.2422" fill="none" rx="3" ry="3" style="stroke: #038048; stroke-width: 1.0;"/><text fill="#000000" font-family="sans-serif" font-size="11" lengthAdjust="spacingAndGlyphs" textLength="273" x="1238.5" y="499.4526">small_business_indicator: Optional[bool] = None</text><ellipse cx="1229.5" cy="509.0469" fill="none" rx="3" ry="3" style="stroke: #038048; stroke-width: 1.0;"/><text fill="#000000" font-family="sans-serif" font-size="11" lengthAdjust="spacingAndGlyphs" textLength="285" x="1238.5" y="512.2573">utility_settlement_indicator: Optional[bool] = None</text><ellipse cx="1229.5" cy="521.8516" fill="none" rx="3" ry="3" style="stroke: #038048; stroke-width: 1.0;"/><text fill="#000000" font-family="sans-serif" font-size="11" lengthAdjust="spacingAndGlyphs" textLength="247" x="1238.5" y="525.062">self_billing_indicator: Optional[bool] = None</text><ellipse cx="1229.5" cy="534.6563" fill="none" rx="3" ry="3" style="stroke: #038048; stroke-width: 1.0;"/><text fill="#000000" font-family="sans-serif" font-size="11" lengthAdjust="spacingAndGlyphs" textLength="299" x="1238.5" y="537.8667">payment_method: Optional[PaymentMethod] = None</text><ellipse cx="1229.5" cy="547.4609" fill="none" rx="3" ry="3" style="stroke: #038048; stroke-width: 1.0;"/><text fill="#000000" font-family="sans-serif" font-size="11" lengthAdjust="spacingAndGlyphs" textLength="215" x="1238.5" y="550.6714">payment_date: Optional[date] = None</text><ellipse cx="1229.5" cy="560.2656" fill="none" rx="3" ry="3" style="stroke: #038048; stroke-width: 1.0;"/><text fill="#000000" font-family="sans-serif" font-size="11" lengthAdjust="spacingAndGlyphs" textLength="281" x="1238.5" y="563.4761">cash_accounting_indicator: Optional[bool] = None</text><ellipse cx="1229.5" cy="573.0703" fill="none" rx="3" ry="3" style="stroke: #038048; stroke-width: 1.0;"/><text fill="#000000" font-family="sans-serif" font-size="11" lengthAdjust="spacingAndGlyphs" textLength="389" x="1238.5" y="576.2808">conventional_invoice_info: Optional[ConventionalInvoiceInfo] = None</text><ellipse cx="1229.5" cy="585.875" fill="none" rx="3" ry="3" style="stroke: #038048; stroke-width: 1.0;"/><text fill="#000000" font-family="sans-serif" font-size="11" lengthAdjust="spacingAndGlyphs" textLength="350" x="1238.5" y="589.0854">additional_invoice_data: Optional[List[AdditionalData]] = None</text><line style="stroke: #A80036; stroke-width: 1.5;" x1="1219.5" x2="1632.5" y1="595.6797" y2="595.6797"/><!--MD5=[9c6d23bce9cd0da32a24a6a2b2a951fb]
class CustomerVatData--><rect codeLine="68" fill="#FEFECE" filter="url(#f1ccukidslpzvc)" height="86.4141" id="CustomerVatData" style="stroke: #A80036; stroke-width: 1.5;" width="282" x="435" y="664"/><ellipse cx="518.75" cy="680" fill="#ADD1B2" rx="11" ry="11" style="stroke: #A80036; stroke-width: 1.0;"/><path d="M521.2188,685.875 Q520.6406,686.1875 520,686.3438 Q519.3594,686.5 518.6563,686.5 Q516.1563,686.5 514.8281,684.8281 Q513.5156,683.1563 513.5156,680 Q513.5156,676.8438 514.8281,675.1719 Q516.1563,673.5 518.6563,673.5 Q519.3594,673.5 520,673.6563 Q520.6563,673.8125 521.2188,674.125 L521.2188,676.9219 Q520.5938,676.3594 520,676.0938 Q519.4063,675.8125 518.7813,675.8125 Q517.4375,675.8125 516.75,676.875 Q516.0625,677.9375 516.0625,680 Q516.0625,682.0781 516.75,683.1406 Q517.4375,684.1875 518.7813,684.1875 Q519.4063,684.1875 520,683.9219 Q520.5938,683.6563 521.2188,683.0781 L521.2188,685.875 Z "/><text fill="#000000" font-family="sans-serif" font-size="12" lengthAdjust="spacingAndGlyphs" textLength="106" x="539.25" y="684.1543">CustomerVatData</text><line style="stroke: #A80036; stroke-width: 1.5;" x1="436" x2="716" y1="696" y2="696"/><ellipse cx="446" cy="707" fill="none" rx="3" ry="3" style="stroke: #038048; stroke-width: 1.0;"/><text fill="#000000" font-family="sans-serif" font-size="11" lengthAdjust="spacingAndGlyphs" textLength="256" x="455" y="710.2104">customer_tax_number: CustomerTaxNumber</text><ellipse cx="446" cy="719.8047" fill="none" rx="3" ry="3" style="stroke: #038048; stroke-width: 1.0;"/><text fill="#000000" font-family="sans-serif" font-size="11" lengthAdjust="spacingAndGlyphs" textLength="160" x="455" y="723.0151">community_vat_number: str</text><ellipse cx="446" cy="732.6094" fill="none" rx="3" ry="3" style="stroke: #038048; stroke-width: 1.0;"/><text fill="#000000" font-family="sans-serif" font-size="11" lengthAdjust="spacingAndGlyphs" textLength="123" x="455" y="735.8198">third_state_tax_id: str</text><line style="stroke: #A80036; stroke-width: 1.5;" x1="436" x2="716" y1="742.4141" y2="742.4141"/><!--MD5=[709b4ea234edc07502cab9ff743e6999]
class CustomerTaxNumber--><rect codeLine="74" fill="#FEFECE" filter="url(#f1ccukidslpzvc)" height="99.2188" id="CustomerTaxNumber" style="stroke: #A80036; stroke-width: 1.5;" width="316" x="418" y="810"/><ellipse cx="507.75" cy="826" fill="#ADD1B2" rx="11" ry="11" style="stroke: #A80036; stroke-width: 1.0;"/><path d="M510.2188,831.875 Q509.6406,832.1875 509,832.3438 Q508.3594,832.5 507.6563,832.5 Q505.1563,832.5 503.8281,830.8281 Q502.5156,829.1563 502.5156,826 Q502.5156,822.8438 503.8281,821.1719 Q505.1563,819.5 507.6563,819.5 Q508.3594,819.5 509,819.6563 Q509.6563,819.8125 510.2188,820.125 L510.2188,822.9219 Q509.5938,822.3594 509,822.0938 Q508.4063,821.8125 507.7813,821.8125 Q506.4375,821.8125 505.75,822.875 Q505.0625,823.9375 505.0625,826 Q505.0625,828.0781 505.75,829.1406 Q506.4375,830.1875 507.7813,830.1875 Q508.4063,830.1875 509,829.9219 Q509.5938,829.6563 510.2188,829.0781 L510.2188,831.875 Z "/><text fill="#000000" font-family="sans-serif" font-size="12" lengthAdjust="spacingAndGlyphs" textLength="128" x="528.25" y="830.1543">CustomerTaxNumber</text><line style="stroke: #A80036; stroke-width: 1.5;" x1="419" x2="733" y1="842" y2="842"/><ellipse cx="429" cy="853" fill="none" rx="3" ry="3" style="stroke: #038048; stroke-width: 1.0;"/><text fill="#000000" font-family="sans-serif" font-size="11" lengthAdjust="spacingAndGlyphs" textLength="90" x="438" y="856.2104">taxpayer_id: str</text><ellipse cx="429" cy="865.8047" fill="none" rx="3" ry="3" style="stroke: #038048; stroke-width: 1.0;"/><text fill="#000000" font-family="sans-serif" font-size="11" lengthAdjust="spacingAndGlyphs" textLength="129" x="438" y="869.0151">vat_code: Optional[str]</text><ellipse cx="429" cy="878.6094" fill="none" rx="3" ry="3" style="stroke: #038048; stroke-width: 1.0;"/><text fill="#000000" font-family="sans-serif" font-size="11" lengthAdjust="spacingAndGlyphs" textLength="149" x="438" y="881.8198">county_code: Optional[str]</text><ellipse cx="429" cy="891.4141" fill="none" rx="3" ry="3" style="stroke: #038048; stroke-width: 1.0;"/><text fill="#000000" font-family="sans-serif" font-size="11" lengthAdjust="spacingAndGlyphs" textLength="290" x="438" y="894.6245">group_member_tax_number: Optional[TaxNumber]</text><line style="stroke: #A80036; stroke-width: 1.5;" x1="419" x2="733" y1="901.2188" y2="901.2188"/><!--MD5=[d59c0a32c8f0a014eb91afc0e80cf97c]
class TaxNumber--><rect codeLine="81" fill="#FEFECE" filter="url(#f1ccukidslpzvc)" height="86.4141" id="TaxNumber" style="stroke: #A80036; stroke-width: 1.5;" width="175" x="488.5" y="969"/><ellipse cx="536.75" cy="985" fill="#ADD1B2" rx="11" ry="11" style="stroke: #A80036; stroke-width: 1.0;"/><path d="M539.2188,990.875 Q538.6406,991.1875 538,991.3438 Q537.3594,991.5 536.6563,991.5 Q534.1563,991.5 532.8281,989.8281 Q531.5156,988.1563 531.5156,985 Q531.5156,981.8438 532.8281,980.1719 Q534.1563,978.5 536.6563,978.5 Q537.3594,978.5 538,978.6563 Q538.6563,978.8125 539.2188,979.125 L539.2188,981.9219 Q538.5938,981.3594 538,981.0938 Q537.4063,980.8125 536.7813,980.8125 Q535.4375,980.8125 534.75,981.875 Q534.0625,982.9375 534.0625,985 Q534.0625,987.0781 534.75,988.1406 Q535.4375,989.1875 536.7813,989.1875 Q537.4063,989.1875 538,988.9219 Q538.5938,988.6563 539.2188,988.0781 L539.2188,990.875 Z "/><text fill="#000000" font-family="sans-serif" font-size="12" lengthAdjust="spacingAndGlyphs" textLength="70" x="557.25" y="989.1543">TaxNumber</text><line style="stroke: #A80036; stroke-width: 1.5;" x1="489.5" x2="662.5" y1="1001" y2="1001"/><ellipse cx="499.5" cy="1012" fill="none" rx="3" ry="3" style="stroke: #038048; stroke-width: 1.0;"/><text fill="#000000" font-family="sans-serif" font-size="11" lengthAdjust="spacingAndGlyphs" textLength="90" x="508.5" y="1015.2104">taxpayer_id: str</text><ellipse cx="499.5" cy="1024.8047" fill="none" rx="3" ry="3" style="stroke: #038048; stroke-width: 1.0;"/><text fill="#000000" font-family="sans-serif" font-size="11" lengthAdjust="spacingAndGlyphs" textLength="129" x="508.5" y="1028.0151">vat_code: Optional[str]</text><ellipse cx="499.5" cy="1037.6094" fill="none" rx="3" ry="3" style="stroke: #038048; stroke-width: 1.0;"/><text fill="#000000" font-family="sans-serif" font-size="11" lengthAdjust="spacingAndGlyphs" textLength="149" x="508.5" y="1040.8198">county_code: Optional[str]</text><line style="stroke: #A80036; stroke-width: 1.5;" x1="489.5" x2="662.5" y1="1047.4141" y2="1047.4141"/><!--MD5=[26065688214f923c62fc6150922821fd]
reverse link TaxNumber to CustomerTaxNumber--><path d="M589.31,948.92 C589.69,935.73 589.5,921.98 588.73,909.36 " fill="none" id="TaxNumber-backto-CustomerTaxNumber" style="stroke: #A80036; stroke-width: 1.0;"/><polygon fill="none" points="596.3,949.35,588.26,968.95,582.32,948.61,596.3,949.35" style="stroke: #A80036; stroke-width: 1.0;"/><!--MD5=[d2ac28676e0f2e49e68706102ae5da5e]
link CustomerTaxNumber to TaxNumber--><path codeLine="95" d="M563.97,909.36 C563.13,924.23 563.02,940.68 563.67,955.93 " fill="none" id="CustomerTaxNumber-to-TaxNumber" style="stroke: #A80036; stroke-width: 1.0;"/><polygon fill="#A80036" points="564.42,968.95,568.0636,962.7271,563.7207,956.9704,560.0772,963.1933,564.42,968.95" style="stroke: #A80036; stroke-width: 1.0;"/><text fill="#000000" font-family="sans-serif" font-size="13" lengthAdjust="spacingAndGlyphs" textLength="8" x="553.816" y="929.1289">1</text><text fill="#000000" font-family="sans-serif" font-size="13" lengthAdjust="spacingAndGlyphs" textLength="8" x="553.9369" y="957.9381">1</text><!--MD5=[41529b3f5f1188f307f0c4bc494ca3f2]
link Invoice to InvoiceReference--><path codeLine="87" d="M998.86,119.35 C1017.41,137.74 1037.97,158.11 1056.2,176.18 " fill="none" id="Invoice-to-InvoiceReference" style="stroke: #A80036; stroke-width: 1.0;"/><polygon fill="#A80036" points="1065.5,185.39,1064.0583,178.3245,1056.9818,176.9377,1058.4235,184.0033,1065.5,185.39" style="stroke: #A80036; stroke-width: 1.0;"/><text fill="#000000" font-family="sans-serif" font-size="13" lengthAdjust="spacingAndGlyphs" textLength="8" x="997.1804" y="139.2053">1</text><text fill="#000000" font-family="sans-serif" font-size="13" lengthAdjust="spacingAndGlyphs" textLength="24" x="1032.8141" y="174.3685">0..1</text><!--MD5=[29469059243ae865cd8b4eeacce34df8]
link Invoice to InvoiceHead--><path codeLine="88" d="M887.48,119.35 C871.32,135.46 853.63,153.1 837.3,169.37 " fill="none" id="Invoice-to-InvoiceHead" style="stroke: #A80036; stroke-width: 1.0;"/><polygon fill="#A80036" points="827.87,178.78,834.9433,177.3768,836.3685,170.3079,829.2952,171.7111,827.87,178.78" style="stroke: #A80036; stroke-width: 1.0;"/><text fill="#000000" font-family="sans-serif" font-size="13" lengthAdjust="spacingAndGlyphs" textLength="8" x="872.226" y="139.2053">1</text><text fill="#000000" font-family="sans-serif" font-size="13" lengthAdjust="spacingAndGlyphs" textLength="8" x="826.1798" y="167.7943">1</text><!--MD5=[e6c0ac6cf141d798067171c2284c0d8f]
link InvoiceHead to SupplierInfo--><path codeLine="89" d="M580.3,271.5 C517.02,288.28 447.72,310.31 387,338 C356.61,351.86 325.65,370.06 297.47,388.51 " fill="none" id="InvoiceHead-to-SupplierInfo" style="stroke: #A80036; stroke-width: 1.0;"/><polygon fill="#A80036" points="286.41,395.86,293.6211,395.8754,296.4088,389.2249,289.1977,389.2095,286.41,395.86" style="stroke: #A80036; stroke-width: 1.0;"/><text fill="#000000" font-family="sans-serif" font-size="13" lengthAdjust="spacingAndGlyphs" textLength="8" x="564.382" y="269.9519">1</text><text fill="#000000" font-family="sans-serif" font-size="13" lengthAdjust="spacingAndGlyphs" textLength="8" x="287.4085" y="385.0357">1</text><!--MD5=[6a9365a14e5afbab3b7dff0e6ce44ec9]
link InvoiceHead to CustomerInfo--><path codeLine="90" d="M737.92,278.17 C707.23,314.53 664.94,364.63 631.28,404.51 " fill="none" id="InvoiceHead-to-CustomerInfo" style="stroke: #A80036; stroke-width: 1.0;"/><polygon fill="#A80036" points="622.7,414.67,629.6274,412.6672,630.443,405.5024,623.5156,407.5052,622.7,414.67" style="stroke: #A80036; stroke-width: 1.0;"/><text fill="#000000" font-family="sans-serif" font-size="13" lengthAdjust="spacingAndGlyphs" textLength="8" x="723.5806" y="298.2704">1</text><text fill="#000000" font-family="sans-serif" font-size="13" lengthAdjust="spacingAndGlyphs" textLength="24" x="602.9291" y="403.9643">0..1</text><!--MD5=[507f25e0a9480bb5703b9dde8139a4c1]
link InvoiceHead to FiscalRepresentative--><path codeLine="91" d="M820.28,278.17 C852.91,316.63 898.57,370.46 933.22,411.31 " fill="none" id="InvoiceHead-to-FiscalRepresentative" style="stroke: #A80036; stroke-width: 1.0;"/><polygon fill="#A80036" points="941.78,421.4,940.9533,414.2364,934.0228,412.2444,934.8495,419.4079,941.78,421.4" style="stroke: #A80036; stroke-width: 1.0;"/><text fill="#000000" font-family="sans-serif" font-size="13" lengthAdjust="spacingAndGlyphs" textLength="8" x="817.5225" y="298.2704">1</text><text fill="#000000" font-family="sans-serif" font-size="13" lengthAdjust="spacingAndGlyphs" textLength="24" x="910.2959" y="410.4312">0..1</text><!--MD5=[bf407752141d710272d83fa8c0851513]
link InvoiceHead to InvoiceDetail--><path codeLine="92" d="M977.59,274.99 C1066.07,296.4 1159.56,320.91 1201,338 C1202.8,338.74 1204.6,339.5 1206.41,340.26 " fill="none" id="InvoiceHead-to-InvoiceDetail" style="stroke: #A80036; stroke-width: 1.0;"/><polygon fill="#A80036" points="1218.34,345.48,1214.441,339.4139,1207.3419,340.6799,1211.2409,346.746,1218.34,345.48" style="stroke: #A80036; stroke-width: 1.0;"/><text fill="#000000" font-family="sans-serif" font-size="13" lengthAdjust="spacingAndGlyphs" textLength="8" x="985.5037" y="273.5783">1</text><text fill="#000000" font-family="sans-serif" font-size="13" lengthAdjust="spacingAndGlyphs" textLength="8" x="1202.7335" y="337.7746">1</text><!--MD5=[c92352e0b363106546c7b760cf32fa61]
link CustomerInfo to CustomerVatData--><path codeLine="93" d="M576,527.16 C576,564.34 576,613.22 576,650.48 " fill="none" id="CustomerInfo-to-CustomerVatData" style="stroke: #A80036; stroke-width: 1.0;"/><polygon fill="#A80036" points="576,663.64,580,657.64,576,651.64,572,657.64,576,663.64" style="stroke: #A80036; stroke-width: 1.0;"/><text fill="#000000" font-family="sans-serif" font-size="13" lengthAdjust="spacingAndGlyphs" textLength="8" x="567.5125" y="546.9921">1</text><text fill="#000000" font-family="sans-serif" font-size="13" lengthAdjust="spacingAndGlyphs" textLength="24" x="550.1625" y="652.8974">0..1</text><!--MD5=[2280aaec0c24aa9422bf76f4a397cc6e]
link CustomerVatData to CustomerTaxNumber--><path codeLine="94" d="M576,750.32 C576,764.65 576,780.95 576,796.48 " fill="none" id="CustomerVatData-to-CustomerTaxNumber" style="stroke: #A80036; stroke-width: 1.0;"/><polygon fill="#A80036" points="576,809.86,580,803.86,576,797.86,572,803.86,576,809.86" style="stroke: #A80036; stroke-width: 1.0;"/><text fill="#000000" font-family="sans-serif" font-size="13" lengthAdjust="spacingAndGlyphs" textLength="8" x="567.3625" y="770.4639">1</text><text fill="#000000" font-family="sans-serif" font-size="13" lengthAdjust="spacingAndGlyphs" textLength="8" x="567.4375" y="798.8855">1</text><!--MD5=[2f1149c6943953f19a3588c9f81da52e]
@startuml
class Invoice {
+ invoice_head: InvoiceHead
+ invoice_summary: Summary
+ invoice_reference: Optional[InvoiceReference] = None
+ invoice_lines: Optional[Lines] = None
+ product_fee_summary: Optional[List[ProductFeeSummary]] = None
}

class InvoiceHead {
+ supplier_info: SupplierInfo
+ invoice_detail: InvoiceDetail
+ customer_info: Optional[CustomerInfo] = None
+ fiscal_representative_info: Optional[FiscalRepresentative] = None
}

class InvoiceReference {
+ original_invoice_number: str
+ modification_index: int
+ modify_without_master: bool
}

class SupplierInfo {
+ supplier_tax_number: TaxNumber
+ supplier_name: str
+ supplier_address: Address
+ group_member_tax_number: Optional[TaxNumber] = None
+ community_vat_number: Optional[str] = None
+ supplier_bank_account_number: Optional[str] = None
+ individual_exemption: Optional[bool] = None
+ excise_licence_num: Optional[str] = None
}

class CustomerInfo {
+ private_person_indicator: bool
+ customer_vat_data: Optional[CustomerVatData] = None
+ customer_name: Optional[str] = None
+ customer_address: Optional[Address] = None
+ customer_bank_account_number: Optional[str] = None
}

class FiscalRepresentative {
+ fiscal_representative_tax_number: TaxNumber
+ fiscal_representative_name: str
+ fiscal_representative_address: Address
+ fiscal_representative_bank_account_number: Optional[str] = None
}

class InvoiceDetail {
+ invoice_category: InvoiceCategory
+ invoice_delivery_date: date
+ currency_code: str
+ exchange_rate: float
+ invoice_appearance: InvoiceAppearance
+ invoice_delivery_period_start: Optional[date] = None
+ invoice_delivery_period_end: Optional[date] = None
+ invoice_accounting_delivery_date: Optional[date] = None
+ periodical_settlement: Optional[bool] = None
+ small_business_indicator: Optional[bool] = None
+ utility_settlement_indicator: Optional[bool] = None
+ self_billing_indicator: Optional[bool] = None
+ payment_method: Optional[PaymentMethod] = None
+ payment_date: Optional[date] = None
+ cash_accounting_indicator: Optional[bool] = None
+ conventional_invoice_info: Optional[ConventionalInvoiceInfo] = None
+ additional_invoice_data: Optional[List[AdditionalData]] = None
}

class CustomerVatData {
+ customer_tax_number: CustomerTaxNumber
+ community_vat_number: str
+ third_state_tax_id: str
}

class CustomerTaxNumber extends TaxNumber {
+ taxpayer_id: str
+ vat_code: Optional[str]
+ county_code: Optional[str]
+ group_member_tax_number: Optional[TaxNumber]
}

class TaxNumber {
+ taxpayer_id: str
+ vat_code: Optional[str]
+ county_code: Optional[str]
}

Invoice "1" - -* "0..1" InvoiceReference
Invoice "1" - -* "1" InvoiceHead
InvoiceHead "1" - -* "1" SupplierInfo
InvoiceHead "1" - -* "0..1" CustomerInfo
InvoiceHead "1" - -* "0..1" FiscalRepresentative
InvoiceHead "1" - -* "1" InvoiceDetail
CustomerInfo "1" - -* "0..1" CustomerVatData
CustomerVatData "1" - -* "1" CustomerTaxNumber
CustomerTaxNumber "1" - -* "1" TaxNumber
@enduml

PlantUML version 1.2020.19(Mon Oct 12 17:10:01 CEST 2020)
(GPL source distribution)
Java Runtime: OpenJDK Runtime Environment
JVM: OpenJDK 64-Bit Server VM
Default Encoding: UTF-8
Language: en
Country: US
--></g></svg>